<svg xmlns="http://www.w3.org/2000/svg" xmlns:xlink="http://www.w3.org/1999/xlink" width="1920" zoomAndPan="magnify" viewBox="0 0 1440 809.999993" height="1080" preserveAspectRatio="xMidYMid meet" version="1.0"><defs><g/></defs><rect x="-144" width="1728" fill="#ffffff" y="-80.999999" height="971.999992" fill-opacity="1"/><rect x="-144" width="1728" fill="#49176d" y="-80.999999" height="971.999992" fill-opacity="1"/><g fill="#ffffff" fill-opacity="1"><g transform="translate(148.853837, 474.807057)"><g><path d="M 9.171875 -6.46875 C 5.285156 -10.914062 3.023438 -16.09375 2.390625 -22 C 1.765625 -27.90625 2.039062 -34.191406 3.21875 -40.859375 C 4.40625 -47.535156 6.039062 -54.242188 8.125 -60.984375 C 10.21875 -67.734375 12.097656 -74.195312 13.765625 -80.375 C 15.429688 -86.5625 16.332031 -92.019531 16.46875 -96.75 C 16.613281 -100.5 16.300781 -105.050781 15.53125 -110.40625 C 14.769531 -115.757812 14.144531 -121.21875 13.65625 -126.78125 C 13.164062 -132.34375 13.269531 -137.519531 13.96875 -142.3125 C 14.664062 -147.101562 16.539062 -150.960938 19.59375 -153.890625 C 20.707031 -154.992188 22.0625 -155.894531 23.65625 -156.59375 C 25.257812 -157.289062 27.175781 -157.640625 29.40625 -157.640625 C 30.925781 -157.640625 32.59375 -157.429688 34.40625 -157.015625 C 37.882812 -156.316406 40.421875 -154.472656 42.015625 -151.484375 C 43.609375 -148.492188 44.613281 -144.84375 45.03125 -140.53125 C 45.457031 -136.226562 45.492188 -131.644531 45.140625 -126.78125 C 44.796875 -121.914062 44.414062 -117.222656 44 -112.703125 C 43.582031 -108.179688 43.300781 -104.320312 43.15625 -101.125 C 43.019531 -96.539062 43.085938 -91.328125 43.359375 -85.484375 C 43.640625 -79.648438 44.300781 -74.054688 45.34375 -68.703125 C 46.394531 -63.347656 47.890625 -58.898438 49.828125 -55.359375 C 51.773438 -51.816406 54.347656 -50.046875 57.546875 -50.046875 C 58.109375 -50.046875 58.941406 -50.179688 60.046875 -50.453125 C 64.910156 -51.984375 69.707031 -53.304688 74.4375 -54.421875 C 79.164062 -55.535156 83.546875 -56.09375 87.578125 -56.09375 C 92.859375 -56.09375 97.476562 -54.875 101.4375 -52.4375 C 105.40625 -50.007812 108.363281 -45.597656 110.3125 -39.203125 C 111.5625 -35.304688 112.082031 -31.097656 111.875 -26.578125 C 111.664062 -22.066406 110.796875 -17.796875 109.265625 -13.765625 C 107.734375 -9.734375 105.472656 -6.429688 102.484375 -3.859375 C 99.492188 -1.285156 95.773438 0 91.328125 0 C 91.191406 0 91.085938 0 91.015625 0 C 90.941406 0 90.835938 0 90.703125 0 C 88.898438 0 86.535156 0 83.609375 0 C 80.691406 0 77.425781 0 73.8125 0 C 66.726562 0 58.976562 0 50.5625 0 C 42.15625 0 34.476562 0 27.53125 0 C 23.21875 0 19.460938 -0.625 16.265625 -1.875 C 13.066406 -3.125 10.703125 -4.65625 9.171875 -6.46875 Z M 9.171875 -6.46875 "/></g></g></g><g fill="#ffffff" fill-opacity="1"><g transform="translate(262.695613, 474.807057)"><g><path d="M 2.078125 -79.03125 C 2.078125 -95.570312 4.09375 -109.710938 8.125 -121.453125 C 12.15625 -133.203125 17.851562 -142.203125 25.21875 -148.453125 C 32.59375 -154.710938 41.285156 -157.84375 51.296875 -157.84375 C 59.078125 -157.84375 66.023438 -155.894531 72.140625 -152 C 78.265625 -148.113281 83.550781 -142.867188 88 -136.265625 C 92.445312 -129.660156 96.023438 -122.148438 98.734375 -113.734375 C 101.441406 -105.328125 103.210938 -96.539062 104.046875 -87.375 C 105.023438 -76.800781 104.675781 -66.367188 103 -56.078125 C 101.332031 -45.796875 98.34375 -36.414062 94.03125 -27.9375 C 89.726562 -19.457031 84.03125 -12.679688 76.9375 -7.609375 C 69.851562 -2.535156 61.304688 0 51.296875 0 C 43.929688 0 37.257812 -2.289062 31.28125 -6.875 C 25.300781 -11.46875 20.117188 -17.585938 15.734375 -25.234375 C 11.359375 -32.878906 7.988281 -41.390625 5.625 -50.765625 C 3.257812 -60.148438 2.078125 -69.570312 2.078125 -79.03125 Z M 51.296875 -132.203125 C 48.648438 -132.203125 46.351562 -130.773438 44.40625 -127.921875 C 42.46875 -125.078125 40.90625 -121.429688 39.71875 -116.984375 C 38.539062 -112.535156 37.878906 -107.769531 37.734375 -102.6875 C 37.597656 -97.613281 38.050781 -92.851562 39.09375 -88.40625 C 40.132812 -83.957031 41.90625 -80.304688 44.40625 -77.453125 C 46.914062 -74.609375 50.1875 -73.1875 54.21875 -73.1875 C 57.832031 -73.1875 60.644531 -74.609375 62.65625 -77.453125 C 64.675781 -80.304688 66 -83.957031 66.625 -88.40625 C 67.25 -92.851562 67.28125 -97.613281 66.71875 -102.6875 C 66.164062 -107.769531 65.160156 -112.535156 63.703125 -116.984375 C 62.242188 -121.429688 60.46875 -125.078125 58.375 -127.921875 C 56.289062 -130.773438 53.929688 -132.203125 51.296875 -132.203125 Z M 51.296875 -132.203125 "/></g></g></g><g fill="#ffffff" fill-opacity="1"><g transform="translate(376.684659, 474.807057)"><g><path d="M 2.5 -32.953125 C 1.800781 -37.816406 2.039062 -43.0625 3.21875 -48.6875 C 4.40625 -54.320312 7.503906 -58.875 12.515625 -62.34375 C 15.148438 -64.15625 17.679688 -65.40625 20.109375 -66.09375 C 22.546875 -66.789062 24.878906 -67.140625 27.109375 -67.140625 C 31.554688 -67.140625 35.585938 -66.375 39.203125 -64.84375 C 42.816406 -63.320312 45.941406 -62.5625 48.578125 -62.5625 C 50.523438 -62.5625 52.226562 -63.148438 53.6875 -64.328125 C 55.144531 -65.503906 56.429688 -67.832031 57.546875 -71.3125 C 60.046875 -78.675781 61.644531 -86.492188 62.34375 -94.765625 C 63.039062 -103.035156 63.285156 -110.890625 63.078125 -118.328125 C 62.867188 -125.765625 62.625 -131.78125 62.34375 -136.375 C 61.925781 -143.1875 62.796875 -148.394531 64.953125 -152 C 67.109375 -155.613281 71.035156 -157.492188 76.734375 -157.640625 C 76.867188 -157.640625 76.972656 -157.640625 77.046875 -157.640625 C 77.117188 -157.640625 77.222656 -157.640625 77.359375 -157.640625 C 80.691406 -157.640625 83.332031 -156.804688 85.28125 -155.140625 C 87.226562 -153.472656 88.6875 -151.382812 89.65625 -148.875 C 90.632812 -146.375 91.257812 -143.835938 91.53125 -141.265625 C 91.8125 -138.691406 91.953125 -136.503906 91.953125 -134.703125 C 92.234375 -124.140625 92.859375 -114.375 93.828125 -105.40625 C 94.804688 -96.4375 95.710938 -87.921875 96.546875 -79.859375 C 97.378906 -71.796875 97.796875 -63.90625 97.796875 -56.1875 C 97.796875 -48.476562 96.890625 -40.59375 95.078125 -32.53125 C 93.410156 -24.601562 90.175781 -18.238281 85.375 -13.4375 C 80.582031 -8.644531 74.847656 -5.207031 68.171875 -3.125 C 61.503906 -1.039062 54.347656 0 46.703125 0 C 38.921875 0 31.867188 -1.457031 25.546875 -4.375 C 19.222656 -7.289062 14.046875 -11.21875 10.015625 -16.15625 C 5.984375 -21.09375 3.476562 -26.691406 2.5 -32.953125 Z M 2.5 -32.953125 "/></g></g></g><g fill="#ffffff" fill-opacity="1"><g transform="translate(480.969123, 474.807057)"><g><path d="M 16.890625 0 C 12.859375 0 9.765625 -0.832031 7.609375 -2.5 C 5.453125 -4.164062 3.988281 -6.285156 3.21875 -8.859375 C 2.457031 -11.429688 2.113281 -14.070312 2.1875 -16.78125 C 2.257812 -19.5 2.503906 -21.828125 2.921875 -23.765625 C 4.453125 -31.554688 6.921875 -39.203125 10.328125 -46.703125 C 13.734375 -54.210938 16.6875 -61.648438 19.1875 -69.015625 C 21.132812 -74.992188 22.90625 -80.867188 24.5 -86.640625 C 26.101562 -92.410156 27.804688 -98.285156 29.609375 -104.265625 C 30.023438 -105.785156 30.820312 -108.734375 32 -113.109375 C 33.1875 -117.492188 34.753906 -122.46875 36.703125 -128.03125 C 38.648438 -133.59375 41.007812 -138.835938 43.78125 -143.765625 C 46.5625 -148.703125 49.832031 -152.421875 53.59375 -154.921875 C 56.375 -156.867188 59.847656 -157.84375 64.015625 -157.84375 C 67.078125 -157.84375 70.03125 -157.25 72.875 -156.0625 C 75.726562 -154.882812 77.847656 -153.113281 79.234375 -150.75 C 84.929688 -142.132812 89.132812 -132.925781 91.84375 -123.125 C 94.5625 -113.320312 97.519531 -103.554688 100.71875 -93.828125 C 102.382812 -88.679688 104.710938 -83.015625 107.703125 -76.828125 C 110.691406 -70.648438 113.710938 -64.394531 116.765625 -58.0625 C 119.828125 -51.738281 122.398438 -45.625 124.484375 -39.71875 C 126.566406 -33.8125 127.675781 -28.492188 127.8125 -23.765625 C 127.957031 -20.296875 127.613281 -16.71875 126.78125 -13.03125 C 125.945312 -9.34375 124.554688 -6.25 122.609375 -3.75 C 120.660156 -1.25 117.945312 0 114.46875 0 L 84.65625 0 C 81.320312 0 78.75 -1.597656 76.9375 -4.796875 C 75.132812 -7.992188 73.882812 -12.128906 73.1875 -17.203125 C 72.488281 -22.273438 72.140625 -27.726562 72.140625 -33.5625 C 72.140625 -39.40625 72.3125 -44.96875 72.65625 -50.25 C 73.007812 -55.53125 73.359375 -59.941406 73.703125 -63.484375 C 74.054688 -67.035156 74.160156 -69.085938 74.015625 -69.640625 C 73.742188 -70.753906 72.703125 -71.585938 70.890625 -72.140625 C 69.085938 -72.703125 67.003906 -72.984375 64.640625 -72.984375 C 62.273438 -72.984375 59.945312 -72.671875 57.65625 -72.046875 C 55.363281 -71.421875 53.867188 -70.410156 53.171875 -69.015625 C 53.035156 -68.742188 53.414062 -66.90625 54.3125 -63.5 C 55.21875 -60.09375 56.296875 -55.742188 57.546875 -50.453125 C 58.796875 -45.171875 59.835938 -39.644531 60.671875 -33.875 C 61.503906 -28.113281 61.816406 -22.660156 61.609375 -17.515625 C 61.398438 -12.367188 60.285156 -8.160156 58.265625 -4.890625 C 56.253906 -1.628906 53.023438 0 48.578125 0 Z M 63.59375 -133.03125 C 61.507812 -132.75 59.738281 -131.21875 58.28125 -128.4375 C 56.820312 -125.664062 55.742188 -122.332031 55.046875 -118.4375 C 54.347656 -114.539062 53.929688 -110.820312 53.796875 -107.28125 C 53.660156 -103.738281 53.800781 -101.132812 54.21875 -99.46875 C 54.632812 -97.9375 55.707031 -96.753906 57.4375 -95.921875 C 59.175781 -95.085938 61.09375 -94.671875 63.1875 -94.671875 C 65.539062 -94.671875 67.828125 -95.191406 70.046875 -96.234375 C 72.273438 -97.273438 73.597656 -98.695312 74.015625 -100.5 C 74.441406 -102.164062 74.476562 -104.804688 74.125 -108.421875 C 73.78125 -112.035156 73.117188 -115.789062 72.140625 -119.6875 C 71.171875 -123.582031 69.957031 -126.847656 68.5 -129.484375 C 67.039062 -132.128906 65.40625 -133.3125 63.59375 -133.03125 Z M 63.59375 -133.03125 "/></g></g></g><g fill="#ffffff" fill-opacity="1"><g transform="translate(683.553027, 474.807057)"><g><path d="M 22.734375 -0.203125 C 15.921875 -0.347656 10.984375 -1.804688 7.921875 -4.578125 C 4.867188 -7.359375 3.023438 -10.695312 2.390625 -14.59375 C 1.765625 -18.488281 1.9375 -22.378906 2.90625 -26.265625 C 3.882812 -30.160156 5.070312 -33.222656 6.46875 -35.453125 C 7.300781 -36.835938 8.476562 -38.847656 10 -41.484375 C 11.53125 -44.128906 12.957031 -47.847656 14.28125 -52.640625 C 15.601562 -57.441406 16.398438 -63.769531 16.671875 -71.625 C 16.953125 -79.476562 16.257812 -89.3125 14.59375 -101.125 C 14.175781 -104.320312 13.515625 -108.109375 12.609375 -112.484375 C 11.710938 -116.867188 10.914062 -121.457031 10.21875 -126.25 C 9.519531 -131.050781 9.238281 -135.601562 9.375 -139.90625 C 9.519531 -144.21875 10.390625 -147.9375 11.984375 -151.0625 C 13.585938 -154.195312 16.195312 -156.25 19.8125 -157.21875 C 21.476562 -157.632812 23.078125 -157.84375 24.609375 -157.84375 C 26.972656 -157.84375 29.125 -157.492188 31.0625 -156.796875 C 33.007812 -156.109375 34.265625 -155.484375 34.828125 -154.921875 C 36.765625 -155.617188 38.984375 -156.28125 41.484375 -156.90625 C 43.992188 -157.53125 46.707031 -157.84375 49.625 -157.84375 C 49.90625 -157.84375 50.253906 -157.84375 50.671875 -157.84375 C 51.085938 -157.84375 51.4375 -157.84375 51.71875 -157.84375 C 57.132812 -157.425781 62.585938 -155.410156 68.078125 -151.796875 C 73.566406 -148.179688 78.707031 -143.070312 83.5 -136.46875 C 88.300781 -129.863281 92.300781 -121.867188 95.5 -112.484375 C 98.695312 -103.109375 100.644531 -92.441406 101.34375 -80.484375 C 101.894531 -71.304688 101.472656 -62.164062 100.078125 -53.0625 C 98.691406 -43.957031 96.226562 -35.6875 92.6875 -28.25 C 89.144531 -20.8125 84.242188 -14.941406 77.984375 -10.640625 C 71.734375 -6.328125 65.375 -3.472656 58.90625 -2.078125 C 52.4375 -0.691406 45.585938 0 38.359375 0 C 37.941406 0 37.523438 0 37.109375 0 C 36.691406 0 36.273438 0 35.859375 0 C 33.359375 -0.132812 31.171875 -0.203125 29.296875 -0.203125 C 27.421875 -0.203125 25.234375 -0.203125 22.734375 -0.203125 Z M 54 -125.734375 C 51.78125 -125.867188 49.972656 -124.613281 48.578125 -121.96875 C 47.191406 -119.332031 46.289062 -115.894531 45.875 -111.65625 C 45.457031 -107.414062 45.421875 -102.929688 45.765625 -98.203125 C 46.117188 -93.484375 46.78125 -89.035156 47.75 -84.859375 C 48.71875 -80.691406 50.035156 -77.285156 51.703125 -74.640625 C 53.378906 -72.003906 55.257812 -70.6875 57.34375 -70.6875 C 59.5625 -70.820312 61.363281 -72.207031 62.75 -74.84375 C 64.144531 -77.488281 65.191406 -80.929688 65.890625 -85.171875 C 66.585938 -89.410156 66.863281 -93.753906 66.71875 -98.203125 C 66.71875 -102.796875 66.234375 -107.175781 65.265625 -111.34375 C 64.296875 -115.519531 62.867188 -118.960938 60.984375 -121.671875 C 59.109375 -124.378906 56.78125 -125.734375 54 -125.734375 Z M 54 -125.734375 "/></g></g></g><g fill="#ffffff" fill-opacity="1"><g transform="translate(792.386089, 474.807057)"><g><path d="M 2.078125 -79.03125 C 2.078125 -95.570312 4.09375 -109.710938 8.125 -121.453125 C 12.15625 -133.203125 17.851562 -142.203125 25.21875 -148.453125 C 32.59375 -154.710938 41.285156 -157.84375 51.296875 -157.84375 C 59.078125 -157.84375 66.023438 -155.894531 72.140625 -152 C 78.265625 -148.113281 83.550781 -142.867188 88 -136.265625 C 92.445312 -129.660156 96.023438 -122.148438 98.734375 -113.734375 C 101.441406 -105.328125 103.210938 -96.539062 104.046875 -87.375 C 105.023438 -76.800781 104.675781 -66.367188 103 -56.078125 C 101.332031 -45.796875 98.34375 -36.414062 94.03125 -27.9375 C 89.726562 -19.457031 84.03125 -12.679688 76.9375 -7.609375 C 69.851562 -2.535156 61.304688 0 51.296875 0 C 43.929688 0 37.257812 -2.289062 31.28125 -6.875 C 25.300781 -11.46875 20.117188 -17.585938 15.734375 -25.234375 C 11.359375 -32.878906 7.988281 -41.390625 5.625 -50.765625 C 3.257812 -60.148438 2.078125 -69.570312 2.078125 -79.03125 Z M 51.296875 -132.203125 C 48.648438 -132.203125 46.351562 -130.773438 44.40625 -127.921875 C 42.46875 -125.078125 40.90625 -121.429688 39.71875 -116.984375 C 38.539062 -112.535156 37.878906 -107.769531 37.734375 -102.6875 C 37.597656 -97.613281 38.050781 -92.851562 39.09375 -88.40625 C 40.132812 -83.957031 41.90625 -80.304688 44.40625 -77.453125 C 46.914062 -74.609375 50.1875 -73.1875 54.21875 -73.1875 C 57.832031 -73.1875 60.644531 -74.609375 62.65625 -77.453125 C 64.675781 -80.304688 66 -83.957031 66.625 -88.40625 C 67.25 -92.851562 67.28125 -97.613281 66.71875 -102.6875 C 66.164062 -107.769531 65.160156 -112.535156 63.703125 -116.984375 C 62.242188 -121.429688 60.46875 -125.078125 58.375 -127.921875 C 56.289062 -130.773438 53.929688 -132.203125 51.296875 -132.203125 Z M 51.296875 -132.203125 "/></g></g></g><g fill="#ffffff" fill-opacity="1"><g transform="translate(979.303146, 474.807057)"><g><path d="M 18.765625 0 C 15.285156 0 12.15625 -1.003906 9.375 -3.015625 C 6.601562 -5.035156 4.554688 -8.375 3.234375 -13.03125 C 1.910156 -17.6875 1.664062 -23.867188 2.5 -31.578125 C 3.332031 -39.296875 5.695312 -48.859375 9.59375 -60.265625 C 12.09375 -67.628906 13.796875 -75.445312 14.703125 -83.71875 C 15.609375 -91.988281 16.09375 -100.15625 16.15625 -108.21875 C 16.226562 -116.28125 16.226562 -123.75 16.15625 -130.625 C 16.09375 -137.507812 16.40625 -143.25 17.09375 -147.84375 C 17.375 -150.0625 18.59375 -152.316406 20.75 -154.609375 C 22.90625 -156.910156 26.414062 -158.0625 31.28125 -158.0625 C 34.613281 -158.0625 37.320312 -157.222656 39.40625 -155.546875 C 41.488281 -153.878906 43.019531 -151.9375 44 -149.71875 C 44.695312 -148.1875 45.148438 -145.332031 45.359375 -141.15625 C 45.566406 -136.988281 45.738281 -132.054688 45.875 -126.359375 C 46.007812 -120.660156 46.25 -114.613281 46.59375 -108.21875 C 46.945312 -101.820312 47.570312 -95.492188 48.46875 -89.234375 C 49.375 -82.984375 50.734375 -77.285156 52.546875 -72.140625 C 54.910156 -65.609375 57.03125 -58.9375 58.90625 -52.125 C 60.78125 -45.3125 62.132812 -38.773438 62.96875 -32.515625 C 63.800781 -26.265625 63.800781 -20.707031 62.96875 -15.84375 C 62.132812 -10.976562 60.082031 -7.117188 56.8125 -4.265625 C 53.550781 -1.421875 48.789062 0 42.53125 0 Z M 18.765625 0 "/></g></g></g><g fill="#ffffff" fill-opacity="1"><g transform="translate(1053.498588, 474.807057)"><g><path d="M 2.078125 -79.03125 C 2.078125 -95.570312 4.09375 -109.710938 8.125 -121.453125 C 12.15625 -133.203125 17.851562 -142.203125 25.21875 -148.453125 C 32.59375 -154.710938 41.285156 -157.84375 51.296875 -157.84375 C 59.078125 -157.84375 66.023438 -155.894531 72.140625 -152 C 78.265625 -148.113281 83.550781 -142.867188 88 -136.265625 C 92.445312 -129.660156 96.023438 -122.148438 98.734375 -113.734375 C 101.441406 -105.328125 103.210938 -96.539062 104.046875 -87.375 C 105.023438 -76.800781 104.675781 -66.367188 103 -56.078125 C 101.332031 -45.796875 98.34375 -36.414062 94.03125 -27.9375 C 89.726562 -19.457031 84.03125 -12.679688 76.9375 -7.609375 C 69.851562 -2.535156 61.304688 0 51.296875 0 C 43.929688 0 37.257812 -2.289062 31.28125 -6.875 C 25.300781 -11.46875 20.117188 -17.585938 15.734375 -25.234375 C 11.359375 -32.878906 7.988281 -41.390625 5.625 -50.765625 C 3.257812 -60.148438 2.078125 -69.570312 2.078125 -79.03125 Z M 51.296875 -132.203125 C 48.648438 -132.203125 46.351562 -130.773438 44.40625 -127.921875 C 42.46875 -125.078125 40.90625 -121.429688 39.71875 -116.984375 C 38.539062 -112.535156 37.878906 -107.769531 37.734375 -102.6875 C 37.597656 -97.613281 38.050781 -92.851562 39.09375 -88.40625 C 40.132812 -83.957031 41.90625 -80.304688 44.40625 -77.453125 C 46.914062 -74.609375 50.1875 -73.1875 54.21875 -73.1875 C 57.832031 -73.1875 60.644531 -74.609375 62.65625 -77.453125 C 64.675781 -80.304688 66 -83.957031 66.625 -88.40625 C 67.25 -92.851562 67.28125 -97.613281 66.71875 -102.6875 C 66.164062 -107.769531 65.160156 -112.535156 63.703125 -116.984375 C 62.242188 -121.429688 60.46875 -125.078125 58.375 -127.921875 C 56.289062 -130.773438 53.929688 -132.203125 51.296875 -132.203125 Z M 51.296875 -132.203125 "/></g></g></g><g fill="#ffffff" fill-opacity="1"><g transform="translate(1165.708697, 474.807057)"><g><path d="M 8.125 -28.359375 C 4.238281 -34.753906 2.222656 -41.21875 2.078125 -47.75 C 1.941406 -54.28125 3.609375 -59.875 7.078125 -64.53125 C 10.554688 -69.1875 15.632812 -71.863281 22.3125 -72.5625 C 22.59375 -72.5625 22.90625 -72.5625 23.25 -72.5625 C 23.59375 -72.5625 23.835938 -72.5625 23.984375 -72.5625 C 27.316406 -72.5625 30.40625 -71.757812 33.25 -70.15625 C 36.101562 -68.5625 38.710938 -66.6875 41.078125 -64.53125 C 43.441406 -62.375 45.523438 -60.492188 47.328125 -58.890625 C 49.140625 -57.296875 50.738281 -56.5 52.125 -56.5 C 52.6875 -56.5 53.242188 -56.78125 53.796875 -57.34375 C 55.460938 -59.007812 55.632812 -60.953125 54.3125 -63.171875 C 53 -65.398438 50.773438 -67.9375 47.640625 -70.78125 C 44.515625 -73.632812 40.96875 -76.726562 37 -80.0625 C 33.039062 -83.40625 29.1875 -87.019531 25.4375 -90.90625 C 21.6875 -94.800781 18.59375 -99.007812 16.15625 -103.53125 C 13.726562 -108.050781 12.515625 -112.878906 12.515625 -118.015625 C 12.515625 -130.671875 16.960938 -140.472656 25.859375 -147.421875 C 34.753906 -154.367188 47.332031 -157.84375 63.59375 -157.84375 C 71.9375 -157.84375 78.675781 -156.625 83.8125 -154.1875 C 88.957031 -151.757812 92.46875 -148.703125 94.34375 -145.015625 C 96.226562 -141.335938 96.472656 -137.691406 95.078125 -134.078125 C 94.109375 -131.578125 92.546875 -129.875 90.390625 -128.96875 C 88.234375 -128.0625 85.765625 -127.609375 82.984375 -127.609375 C 79.515625 -127.609375 75.796875 -128.023438 71.828125 -128.859375 C 67.867188 -129.691406 64.429688 -130.25 61.515625 -130.53125 C 61.097656 -130.53125 60.644531 -130.5625 60.15625 -130.625 C 59.664062 -130.695312 59.210938 -130.734375 58.796875 -130.734375 C 54.492188 -130.734375 51.332031 -129.585938 49.3125 -127.296875 C 47.300781 -125.003906 46.78125 -121.910156 47.75 -118.015625 C 48.445312 -114.960938 50.460938 -111.941406 53.796875 -108.953125 C 57.128906 -105.960938 61.191406 -102.796875 65.984375 -99.453125 C 70.785156 -96.117188 75.757812 -92.578125 80.90625 -88.828125 C 86.050781 -85.078125 90.847656 -80.90625 95.296875 -76.3125 C 99.742188 -71.726562 103.359375 -66.617188 106.140625 -60.984375 C 108.921875 -55.359375 110.238281 -49.070312 110.09375 -42.125 C 109.957031 -32.8125 107.664062 -25.023438 103.21875 -18.765625 C 98.769531 -12.515625 93.242188 -7.820312 86.640625 -4.6875 C 80.035156 -1.5625 73.257812 0 66.3125 0 L 58.171875 0 C 50.253906 0 43.0625 -1.390625 36.59375 -4.171875 C 30.132812 -6.953125 24.503906 -10.53125 19.703125 -14.90625 C 14.910156 -19.289062 11.050781 -23.773438 8.125 -28.359375 Z M 8.125 -28.359375 "/></g></g></g></svg>