<svg xmlns="http://www.w3.org/2000/svg" xmlns:xlink="http://www.w3.org/1999/xlink" width="100" zoomAndPan="magnify" viewBox="0 0 75 52.499999" height="70" preserveAspectRatio="xMidYMid meet" version="1.0"><defs><g/></defs><g fill="#ffffff" fill-opacity="1"><g transform="translate(5.665363, 16.313975)"><g><path d="M 0.203125 -10.71875 C 0.203125 -10.9375 0.285156 -11.082031 0.453125 -11.15625 C 0.628906 -11.238281 0.84375 -11.28125 1.09375 -11.28125 C 1.363281 -11.28125 1.648438 -11.253906 1.953125 -11.203125 C 2.253906 -11.160156 2.515625 -11.140625 2.734375 -11.140625 C 2.960938 -11.140625 3.226562 -11.160156 3.53125 -11.203125 C 3.832031 -11.253906 4.125 -11.28125 4.40625 -11.28125 C 4.664062 -11.28125 4.878906 -11.238281 5.046875 -11.15625 C 5.210938 -11.082031 5.296875 -10.9375 5.296875 -10.71875 C 5.296875 -10.550781 5.257812 -10.425781 5.1875 -10.34375 C 5.113281 -10.269531 5.023438 -10.164062 4.921875 -10.03125 C 4.816406 -9.90625 4.726562 -9.707031 4.65625 -9.4375 C 4.582031 -9.175781 4.546875 -8.785156 4.546875 -8.265625 L 4.546875 -1.5625 C 4.546875 -1.363281 4.601562 -1.226562 4.71875 -1.15625 C 4.84375 -1.09375 4.976562 -1.0625 5.125 -1.0625 C 5.269531 -1.0625 5.394531 -1.0625 5.5 -1.0625 C 5.832031 -1.0625 6.132812 -1.179688 6.40625 -1.421875 C 6.675781 -1.660156 6.925781 -1.953125 7.15625 -2.296875 C 7.394531 -2.648438 7.613281 -3 7.8125 -3.34375 C 8.007812 -3.695312 8.207031 -3.992188 8.40625 -4.234375 C 8.613281 -4.472656 8.820312 -4.59375 9.03125 -4.59375 C 9.382812 -4.59375 9.539062 -4.394531 9.5 -4 C 9.46875 -3.601562 9.3125 -2.898438 9.03125 -1.890625 C 8.925781 -1.492188 8.863281 -1.140625 8.84375 -0.828125 C 8.832031 -0.523438 8.78125 -0.285156 8.6875 -0.109375 C 8.601562 0.0546875 8.394531 0.140625 8.0625 0.140625 C 6.945312 0.140625 5.953125 0.113281 5.078125 0.0625 C 4.210938 0.0195312 3.425781 0 2.71875 0 C 2.363281 0 2.03125 0.0195312 1.71875 0.0625 C 1.40625 0.113281 1.128906 0.140625 0.890625 0.140625 C 0.679688 0.140625 0.515625 0.0976562 0.390625 0.015625 C 0.265625 -0.0546875 0.203125 -0.203125 0.203125 -0.421875 C 0.203125 -0.585938 0.238281 -0.707031 0.3125 -0.78125 C 0.382812 -0.863281 0.472656 -0.96875 0.578125 -1.09375 C 0.679688 -1.226562 0.769531 -1.425781 0.84375 -1.6875 C 0.914062 -1.957031 0.953125 -2.351562 0.953125 -2.875 L 0.953125 -8.265625 C 0.953125 -8.785156 0.914062 -9.175781 0.84375 -9.4375 C 0.769531 -9.707031 0.679688 -9.90625 0.578125 -10.03125 C 0.472656 -10.164062 0.382812 -10.269531 0.3125 -10.34375 C 0.238281 -10.425781 0.203125 -10.550781 0.203125 -10.71875 Z M 0.203125 -10.71875 "/></g></g></g><g fill="#ffffff" fill-opacity="1"><g transform="translate(15.424282, 16.313975)"><g><path d="M 5.28125 0.140625 C 3.789062 0.140625 2.613281 -0.265625 1.75 -1.078125 C 0.882812 -1.890625 0.453125 -3.015625 0.453125 -4.453125 C 0.453125 -5.910156 0.882812 -7.039062 1.75 -7.84375 C 2.613281 -8.644531 3.789062 -9.046875 5.28125 -9.046875 C 6.769531 -9.046875 7.945312 -8.644531 8.8125 -7.84375 C 9.675781 -7.039062 10.109375 -5.910156 10.109375 -4.453125 C 10.109375 -3.015625 9.675781 -1.890625 8.8125 -1.078125 C 7.945312 -0.265625 6.769531 0.140625 5.28125 0.140625 Z M 4.125 -4.453125 C 4.125 -3.847656 4.15625 -3.285156 4.21875 -2.765625 C 4.289062 -2.253906 4.410156 -1.847656 4.578125 -1.546875 C 4.742188 -1.253906 4.976562 -1.109375 5.28125 -1.109375 C 5.59375 -1.109375 5.832031 -1.253906 6 -1.546875 C 6.175781 -1.847656 6.289062 -2.253906 6.34375 -2.765625 C 6.40625 -3.285156 6.4375 -3.847656 6.4375 -4.453125 C 6.4375 -5.078125 6.40625 -5.640625 6.34375 -6.140625 C 6.289062 -6.648438 6.175781 -7.050781 6 -7.34375 C 5.832031 -7.644531 5.59375 -7.796875 5.28125 -7.796875 C 4.976562 -7.796875 4.742188 -7.644531 4.578125 -7.34375 C 4.410156 -7.050781 4.289062 -6.648438 4.21875 -6.140625 C 4.15625 -5.640625 4.125 -5.078125 4.125 -4.453125 Z M 4.125 -4.453125 "/></g></g></g><g fill="#ffffff" fill-opacity="1"><g transform="translate(26.163548, 16.313975)"><g><path d="M 0.109375 0.796875 C 0.109375 0.546875 0.164062 0.414062 0.28125 0.40625 C 0.394531 0.40625 0.539062 0.320312 0.71875 0.15625 C 0.9375 -0.0507812 1.050781 -0.367188 1.0625 -0.796875 C 1.082031 -1.234375 1.09375 -1.925781 1.09375 -2.875 C 1.09375 -3.5625 1.09375 -4.054688 1.09375 -4.359375 C 1.101562 -4.660156 1.109375 -4.878906 1.109375 -5.015625 C 1.109375 -5.160156 1.109375 -5.320312 1.109375 -5.5 C 1.109375 -5.90625 1.046875 -6.1875 0.921875 -6.34375 C 0.796875 -6.5 0.671875 -6.617188 0.546875 -6.703125 C 0.421875 -6.796875 0.359375 -6.9375 0.359375 -7.125 C 0.359375 -7.351562 0.429688 -7.503906 0.578125 -7.578125 C 0.722656 -7.660156 0.929688 -7.734375 1.203125 -7.796875 C 1.484375 -7.859375 1.816406 -7.957031 2.203125 -8.09375 C 2.679688 -8.269531 3.007812 -8.425781 3.1875 -8.5625 C 3.363281 -8.707031 3.492188 -8.820312 3.578125 -8.90625 C 3.671875 -9 3.816406 -9.046875 4.015625 -9.046875 C 4.273438 -9.046875 4.445312 -8.925781 4.53125 -8.6875 C 4.625 -8.445312 4.671875 -8.164062 4.671875 -7.84375 L 4.671875 -1.0625 C 4.671875 1.101562 3.867188 2.1875 2.265625 2.1875 C 1.460938 2.1875 0.898438 2.023438 0.578125 1.703125 C 0.265625 1.378906 0.109375 1.078125 0.109375 0.796875 Z M 0.609375 -9.671875 C 0.453125 -10.117188 0.523438 -10.597656 0.828125 -11.109375 C 1.140625 -11.628906 1.609375 -12.054688 2.234375 -12.390625 C 2.753906 -12.660156 3.226562 -12.796875 3.65625 -12.796875 C 4.3125 -12.796875 4.734375 -12.523438 4.921875 -11.984375 C 5.085938 -11.523438 5.015625 -11.039062 4.703125 -10.53125 C 4.398438 -10.03125 3.9375 -9.609375 3.3125 -9.265625 C 3.050781 -9.128906 2.796875 -9.023438 2.546875 -8.953125 C 2.304688 -8.878906 2.070312 -8.84375 1.84375 -8.84375 C 1.207031 -8.84375 0.796875 -9.117188 0.609375 -9.671875 Z M 0.609375 -9.671875 "/></g></g></g><g fill="#ffffff" fill-opacity="1"><g transform="translate(31.845116, 16.313975)"><g><path d="M 2.890625 0.140625 C 2.066406 0.140625 1.453125 -0.101562 1.046875 -0.59375 C 0.648438 -1.09375 0.453125 -1.679688 0.453125 -2.359375 C 0.453125 -3.359375 0.820312 -4.140625 1.5625 -4.703125 C 2.300781 -5.273438 3.265625 -5.691406 4.453125 -5.953125 C 5.585938 -6.191406 6.15625 -6.5625 6.15625 -7.0625 C 6.15625 -7.257812 6.070312 -7.445312 5.90625 -7.625 C 5.738281 -7.8125 5.457031 -7.90625 5.0625 -7.90625 C 4.65625 -7.90625 4.328125 -7.796875 4.078125 -7.578125 C 3.828125 -7.367188 3.601562 -7.125 3.40625 -6.84375 C 3.21875 -6.570312 3.003906 -6.328125 2.765625 -6.109375 C 2.535156 -5.898438 2.226562 -5.796875 1.84375 -5.796875 C 1.59375 -5.796875 1.375 -5.882812 1.1875 -6.0625 C 1 -6.238281 0.90625 -6.453125 0.90625 -6.703125 C 0.90625 -7.210938 1.101562 -7.640625 1.5 -7.984375 C 1.90625 -8.335938 2.429688 -8.601562 3.078125 -8.78125 C 3.734375 -8.957031 4.4375 -9.046875 5.1875 -9.046875 C 6.007812 -9.046875 6.753906 -8.914062 7.421875 -8.65625 C 8.085938 -8.394531 8.617188 -7.957031 9.015625 -7.34375 C 9.421875 -6.738281 9.625 -5.910156 9.625 -4.859375 L 9.625 -2.875 C 9.625 -2.351562 9.660156 -1.957031 9.734375 -1.6875 C 9.804688 -1.425781 9.894531 -1.226562 10 -1.09375 C 10.101562 -0.96875 10.191406 -0.863281 10.265625 -0.78125 C 10.347656 -0.707031 10.390625 -0.585938 10.390625 -0.421875 C 10.390625 -0.203125 10.320312 -0.0546875 10.1875 0.015625 C 10.050781 0.0976562 9.878906 0.140625 9.671875 0.140625 C 9.441406 0.140625 9.191406 0.113281 8.921875 0.0625 C 8.660156 0.0195312 8.421875 0 8.203125 0 C 7.960938 0 7.753906 0.0078125 7.578125 0.03125 C 7.398438 0.0507812 7.210938 0.078125 7.015625 0.109375 C 6.773438 0.140625 6.5625 0.109375 6.375 0.015625 C 6.195312 -0.0664062 6.09375 -0.226562 6.0625 -0.46875 C 6.039062 -0.707031 6 -0.863281 5.9375 -0.9375 C 5.882812 -1.019531 5.8125 -1.0625 5.71875 -1.0625 C 5.5625 -1.0625 5.351562 -0.960938 5.09375 -0.765625 C 4.832031 -0.566406 4.519531 -0.363281 4.15625 -0.15625 C 3.789062 0.0390625 3.367188 0.140625 2.890625 0.140625 Z M 3.90625 -3.28125 C 3.90625 -2.84375 4.007812 -2.53125 4.21875 -2.34375 C 4.4375 -2.164062 4.691406 -2.078125 4.984375 -2.078125 C 5.359375 -2.078125 5.640625 -2.234375 5.828125 -2.546875 C 6.023438 -2.867188 6.125 -3.242188 6.125 -3.671875 L 6.125 -4.75 C 6.125 -5.144531 5.9375 -5.25 5.5625 -5.0625 C 5.332031 -4.9375 5.085938 -4.800781 4.828125 -4.65625 C 4.566406 -4.519531 4.347656 -4.347656 4.171875 -4.140625 C 3.992188 -3.929688 3.90625 -3.644531 3.90625 -3.28125 Z M 3.90625 -3.28125 "/></g></g></g><g fill="#ffffff" fill-opacity="1"><g transform="translate(42.628944, 16.313975)"><g/></g></g><g fill="#ffffff" fill-opacity="1"><g transform="translate(46.149291, 16.313975)"><g><path d="M 2.765625 0 C 2.535156 0 2.269531 0.0195312 1.96875 0.0625 C 1.664062 0.113281 1.378906 0.140625 1.109375 0.140625 C 0.859375 0.140625 0.644531 0.0976562 0.46875 0.015625 C 0.300781 -0.0546875 0.21875 -0.203125 0.21875 -0.421875 C 0.21875 -0.585938 0.253906 -0.707031 0.328125 -0.78125 C 0.410156 -0.863281 0.5 -0.96875 0.59375 -1.09375 C 0.695312 -1.226562 0.785156 -1.425781 0.859375 -1.6875 C 0.941406 -1.957031 0.984375 -2.351562 0.984375 -2.875 L 0.984375 -8.265625 C 0.984375 -8.785156 0.941406 -9.175781 0.859375 -9.4375 C 0.785156 -9.707031 0.695312 -9.90625 0.59375 -10.03125 C 0.5 -10.164062 0.410156 -10.269531 0.328125 -10.34375 C 0.253906 -10.425781 0.21875 -10.550781 0.21875 -10.71875 C 0.21875 -10.9375 0.300781 -11.082031 0.46875 -11.15625 C 0.644531 -11.238281 0.859375 -11.28125 1.109375 -11.28125 C 1.378906 -11.28125 1.664062 -11.253906 1.96875 -11.203125 C 2.269531 -11.160156 2.535156 -11.140625 2.765625 -11.140625 C 2.984375 -11.140625 3.253906 -11.148438 3.578125 -11.171875 C 3.910156 -11.191406 4.234375 -11.210938 4.546875 -11.234375 C 4.867188 -11.265625 5.128906 -11.28125 5.328125 -11.28125 C 7.097656 -11.28125 8.472656 -10.785156 9.453125 -9.796875 C 10.441406 -8.804688 10.9375 -7.394531 10.9375 -5.5625 C 10.9375 -3.738281 10.441406 -2.332031 9.453125 -1.34375 C 8.472656 -0.351562 7.097656 0.140625 5.328125 0.140625 C 5.128906 0.140625 4.867188 0.125 4.546875 0.09375 C 4.234375 0.0703125 3.910156 0.0507812 3.578125 0.03125 C 3.253906 0.0078125 2.984375 0 2.765625 0 Z M 4.59375 -1.625 C 4.59375 -1.300781 4.773438 -1.140625 5.140625 -1.140625 C 5.578125 -1.140625 5.925781 -1.285156 6.1875 -1.578125 C 6.445312 -1.878906 6.644531 -2.265625 6.78125 -2.734375 C 6.925781 -3.203125 7.023438 -3.6875 7.078125 -4.1875 C 7.128906 -4.695312 7.15625 -5.15625 7.15625 -5.5625 C 7.15625 -5.96875 7.125 -6.414062 7.0625 -6.90625 C 7 -7.394531 6.894531 -7.863281 6.75 -8.3125 C 6.613281 -8.769531 6.414062 -9.144531 6.15625 -9.4375 C 5.894531 -9.738281 5.554688 -9.890625 5.140625 -9.890625 C 4.773438 -9.890625 4.59375 -9.726562 4.59375 -9.40625 Z M 4.59375 -1.625 "/></g></g></g><g fill="#ffffff" fill-opacity="1"><g transform="translate(57.71294, 16.313975)"><g><path d="M 5.28125 0.140625 C 3.789062 0.140625 2.613281 -0.265625 1.75 -1.078125 C 0.882812 -1.890625 0.453125 -3.015625 0.453125 -4.453125 C 0.453125 -5.910156 0.882812 -7.039062 1.75 -7.84375 C 2.613281 -8.644531 3.789062 -9.046875 5.28125 -9.046875 C 6.769531 -9.046875 7.945312 -8.644531 8.8125 -7.84375 C 9.675781 -7.039062 10.109375 -5.910156 10.109375 -4.453125 C 10.109375 -3.015625 9.675781 -1.890625 8.8125 -1.078125 C 7.945312 -0.265625 6.769531 0.140625 5.28125 0.140625 Z M 4.125 -4.453125 C 4.125 -3.847656 4.15625 -3.285156 4.21875 -2.765625 C 4.289062 -2.253906 4.410156 -1.847656 4.578125 -1.546875 C 4.742188 -1.253906 4.976562 -1.109375 5.28125 -1.109375 C 5.59375 -1.109375 5.832031 -1.253906 6 -1.546875 C 6.175781 -1.847656 6.289062 -2.253906 6.34375 -2.765625 C 6.40625 -3.285156 6.4375 -3.847656 6.4375 -4.453125 C 6.4375 -5.078125 6.40625 -5.640625 6.34375 -6.140625 C 6.289062 -6.648438 6.175781 -7.050781 6 -7.34375 C 5.832031 -7.644531 5.59375 -7.796875 5.28125 -7.796875 C 4.976562 -7.796875 4.742188 -7.644531 4.578125 -7.34375 C 4.410156 -7.050781 4.289062 -6.648438 4.21875 -6.140625 C 4.15625 -5.640625 4.125 -5.078125 4.125 -4.453125 Z M 4.125 -4.453125 "/></g></g></g><g fill="#ffffff" fill-opacity="1"><g transform="translate(5.710593, 46.751399)"><g><path d="M 0.515625 -0.984375 C 0.515625 -1.359375 0.597656 -1.640625 0.765625 -1.828125 C 0.941406 -2.023438 1.148438 -2.269531 1.390625 -2.5625 C 1.628906 -2.851562 1.832031 -3.304688 2 -3.921875 C 2.175781 -4.546875 2.265625 -5.457031 2.265625 -6.65625 L 2.265625 -19.171875 C 2.265625 -20.367188 2.175781 -21.273438 2 -21.890625 C 1.832031 -22.515625 1.628906 -22.972656 1.390625 -23.265625 C 1.148438 -23.554688 0.941406 -23.796875 0.765625 -23.984375 C 0.597656 -24.179688 0.515625 -24.46875 0.515625 -24.84375 C 0.515625 -25.363281 0.710938 -25.707031 1.109375 -25.875 C 1.503906 -26.050781 1.992188 -26.140625 2.578125 -26.140625 C 3.203125 -26.140625 3.863281 -26.085938 4.5625 -25.984375 C 5.269531 -25.878906 5.882812 -25.828125 6.40625 -25.828125 C 6.925781 -25.828125 7.535156 -25.878906 8.234375 -25.984375 C 8.941406 -26.085938 9.609375 -26.140625 10.234375 -26.140625 C 10.816406 -26.140625 11.304688 -26.050781 11.703125 -25.875 C 12.097656 -25.707031 12.296875 -25.363281 12.296875 -24.84375 C 12.296875 -24.46875 12.207031 -24.179688 12.03125 -23.984375 C 11.863281 -23.796875 11.65625 -23.554688 11.40625 -23.265625 C 11.164062 -22.972656 10.957031 -22.515625 10.78125 -21.890625 C 10.613281 -21.273438 10.53125 -20.367188 10.53125 -19.171875 L 10.53125 -6.65625 C 10.53125 -5.457031 10.613281 -4.546875 10.78125 -3.921875 C 10.957031 -3.304688 11.164062 -2.851562 11.40625 -2.5625 C 11.65625 -2.269531 11.863281 -2.023438 12.03125 -1.828125 C 12.207031 -1.640625 12.296875 -1.359375 12.296875 -0.984375 C 12.296875 -0.460938 12.097656 -0.117188 11.703125 0.046875 C 11.304688 0.222656 10.816406 0.3125 10.234375 0.3125 C 9.609375 0.3125 8.941406 0.257812 8.234375 0.15625 C 7.535156 0.0507812 6.925781 0 6.40625 0 C 5.882812 0 5.269531 0.0507812 4.5625 0.15625 C 3.863281 0.257812 3.203125 0.3125 2.578125 0.3125 C 1.992188 0.3125 1.503906 0.222656 1.109375 0.046875 C 0.710938 -0.117188 0.515625 -0.460938 0.515625 -0.984375 Z M 0.515625 -0.984375 "/></g></g></g><g fill="#ffffff" fill-opacity="1"><g transform="translate(18.935565, 46.751399)"><g><path d="M 13.953125 0.625 C 11.535156 0.625 9.351562 0.046875 7.40625 -1.109375 C 5.46875 -2.265625 3.921875 -3.859375 2.765625 -5.890625 C 1.609375 -7.921875 1.03125 -10.257812 1.03125 -12.90625 C 1.03125 -15.5625 1.609375 -17.90625 2.765625 -19.9375 C 3.921875 -21.96875 5.46875 -23.5625 7.40625 -24.71875 C 9.351562 -25.875 11.535156 -26.453125 13.953125 -26.453125 C 16.359375 -26.453125 18.535156 -25.875 20.484375 -24.71875 C 22.429688 -23.5625 23.972656 -21.96875 25.109375 -19.9375 C 26.242188 -17.90625 26.8125 -15.5625 26.8125 -12.90625 C 26.8125 -10.257812 26.242188 -7.921875 25.109375 -5.890625 C 23.972656 -3.859375 22.429688 -2.265625 20.484375 -1.109375 C 18.535156 0.046875 16.359375 0.625 13.953125 0.625 Z M 9.8125 -12.90625 C 9.8125 -10.8125 9.929688 -8.945312 10.171875 -7.3125 C 10.410156 -5.675781 10.832031 -4.390625 11.4375 -3.453125 C 12.039062 -2.523438 12.878906 -2.0625 13.953125 -2.0625 C 15.015625 -2.0625 15.835938 -2.523438 16.421875 -3.453125 C 17.015625 -4.390625 17.421875 -5.675781 17.640625 -7.3125 C 17.859375 -8.945312 17.96875 -10.8125 17.96875 -12.90625 C 17.96875 -15.007812 17.859375 -16.878906 17.640625 -18.515625 C 17.421875 -20.148438 17.015625 -21.429688 16.421875 -22.359375 C 15.835938 -23.296875 15.015625 -23.765625 13.953125 -23.765625 C 12.878906 -23.765625 12.039062 -23.296875 11.4375 -22.359375 C 10.832031 -21.429688 10.410156 -20.148438 10.171875 -18.515625 C 9.929688 -16.878906 9.8125 -15.007812 9.8125 -12.90625 Z M 9.8125 -12.90625 "/></g></g></g><g fill="#ffffff" fill-opacity="1"><g transform="translate(47.193582, 46.751399)"><g><path d="M 1.390625 -5.109375 C 1.390625 -6.179688 1.320312 -7.101562 1.1875 -7.875 C 1.050781 -8.65625 1.007812 -9.269531 1.0625 -9.71875 C 1.113281 -10.164062 1.445312 -10.390625 2.0625 -10.390625 C 2.476562 -10.390625 2.890625 -10.140625 3.296875 -9.640625 C 3.710938 -9.140625 4.1875 -8.515625 4.71875 -7.765625 C 5.257812 -7.023438 5.898438 -6.285156 6.640625 -5.546875 C 7.378906 -4.804688 8.265625 -4.1875 9.296875 -3.6875 C 10.328125 -3.1875 11.550781 -2.9375 12.96875 -2.9375 C 13.789062 -2.9375 14.46875 -3.082031 15 -3.375 C 15.539062 -3.675781 15.8125 -4.203125 15.8125 -4.953125 C 15.8125 -5.640625 15.457031 -6.222656 14.75 -6.703125 C 14.039062 -7.191406 13.132812 -7.664062 12.03125 -8.125 C 10.9375 -8.59375 9.765625 -9.09375 8.515625 -9.625 C 7.273438 -10.164062 6.101562 -10.8125 5 -11.5625 C 3.90625 -12.320312 3.015625 -13.257812 2.328125 -14.375 C 1.640625 -15.5 1.296875 -16.851562 1.296875 -18.4375 C 1.296875 -20.644531 2.101562 -22.476562 3.71875 -23.9375 C 5.332031 -25.40625 7.742188 -26.140625 10.953125 -26.140625 C 11.953125 -26.140625 12.769531 -26.085938 13.40625 -25.984375 C 14.039062 -25.878906 14.738281 -25.828125 15.5 -25.828125 C 16.082031 -25.828125 16.601562 -25.878906 17.0625 -25.984375 C 17.53125 -26.085938 17.9375 -26.140625 18.28125 -26.140625 C 18.5625 -26.140625 18.796875 -26.085938 18.984375 -25.984375 C 19.171875 -25.878906 19.332031 -25.671875 19.46875 -25.359375 C 20.257812 -23.640625 20.890625 -22.160156 21.359375 -20.921875 C 21.828125 -19.679688 22.007812 -18.734375 21.90625 -18.078125 C 21.800781 -17.421875 21.234375 -17.09375 20.203125 -17.09375 C 19.609375 -17.09375 19.050781 -17.394531 18.53125 -18 C 18.019531 -18.601562 17.5 -19.304688 16.96875 -20.109375 C 16.4375 -20.921875 15.804688 -21.628906 15.078125 -22.234375 C 14.359375 -22.835938 13.5 -23.140625 12.5 -23.140625 C 11.53125 -23.140625 10.785156 -22.878906 10.265625 -22.359375 C 9.753906 -21.847656 9.5 -21.160156 9.5 -20.296875 C 9.5 -19.503906 9.832031 -18.84375 10.5 -18.3125 C 11.175781 -17.78125 12.03125 -17.296875 13.0625 -16.859375 C 14.101562 -16.429688 15.21875 -15.976562 16.40625 -15.5 C 17.59375 -15.019531 18.703125 -14.429688 19.734375 -13.734375 C 20.765625 -13.046875 21.613281 -12.1875 22.28125 -11.15625 C 22.957031 -10.125 23.296875 -8.816406 23.296875 -7.234375 C 23.296875 -5.578125 22.78125 -4.1875 21.75 -3.0625 C 20.71875 -1.945312 19.398438 -1.101562 17.796875 -0.53125 C 16.191406 0.03125 14.492188 0.3125 12.703125 0.3125 C 11.398438 0.3125 10.289062 0.257812 9.375 0.15625 C 8.457031 0.0507812 7.347656 0 6.046875 0 C 5.179688 0 4.539062 0.0507812 4.125 0.15625 C 3.71875 0.257812 3.148438 0.3125 2.421875 0.3125 C 1.734375 0.3125 1.328125 0.0625 1.203125 -0.4375 C 1.085938 -0.9375 1.085938 -1.597656 1.203125 -2.421875 C 1.328125 -3.253906 1.390625 -4.148438 1.390625 -5.109375 Z M 1.390625 -5.109375 "/></g></g></g></svg>